<svg width="16" height="16" viewBox="0 0 16 16" fill="none" xmlns="http://www.w3.org/2000/svg">
<rect width="16" height="16" fill="#2C2D35"/>
<rect x="2" y="2" width="6" height="12" fill="#656876"/>
<path d="M2.44 12V6.84H3.37V7.51H3.42C3.5 7.29 3.61333 7.10333 3.76 6.95C3.91333 6.79667 4.13 6.72 4.41 6.72C4.68333 6.72 4.89333 6.79667 5.04 6.95C5.19333 7.09667 5.29 7.3 5.33 7.56H5.37C5.46333 7.32667 5.59333 7.13 5.76 6.97C5.92667 6.80333 6.16667 6.72 6.48 6.72C6.88 6.72 7.15667 6.86 7.31 7.14C7.47 7.42 7.55 7.83 7.55 8.37V12H6.62V8.51C6.62 8.15 6.57667 7.90333 6.49 7.77C6.40333 7.63 6.26333 7.56 6.07 7.56C5.89667 7.56 5.75 7.62 5.63 7.74C5.51667 7.85333 5.46 8.02667 5.46 8.26V12H4.53V8.51C4.53 8.15 4.48667 7.90333 4.4 7.77C4.32 7.63 4.18333 7.56 3.99 7.56C3.81 7.56 3.66 7.62 3.54 7.74C3.42667 7.85333 3.37 8.02667 3.37 8.26V12H2.44ZM12.1161 11.12H12.0561C11.9028 11.4333 11.6994 11.68 11.4461 11.86C11.1928 12.0333 10.8761 12.12 10.4961 12.12C9.88943 12.12 9.40609 11.8933 9.04609 11.44C8.68609 10.9867 8.50609 10.3133 8.50609 9.42C8.50609 8.52667 8.68609 7.85333 9.04609 7.4C9.40609 6.94667 9.88943 6.72 10.4961 6.72C10.8761 6.72 11.1928 6.81 11.4461 6.99C11.6994 7.16333 11.9028 7.40667 12.0561 7.72H12.1161V4.6H13.2061V12H12.1161V11.12ZM10.9461 11.23C11.1061 11.23 11.2561 11.21 11.3961 11.17C11.5361 11.13 11.6594 11.07 11.7661 10.99C11.8728 10.91 11.9561 10.8133 12.0161 10.7C12.0828 10.58 12.1161 10.44 12.1161 10.28V8.56C12.1161 8.4 12.0828 8.26333 12.0161 8.15C11.9561 8.03 11.8728 7.93 11.7661 7.85C11.6594 7.77 11.5361 7.71 11.3961 7.67C11.2561 7.63 11.1061 7.61 10.9461 7.61C10.5328 7.61 10.2128 7.73667 9.98609 7.99C9.76609 8.24333 9.65609 8.58 9.65609 9V9.84C9.65609 10.26 9.76609 10.5967 9.98609 10.85C10.2128 11.1033 10.5328 11.23 10.9461 11.23Z" fill="#F9FAFA"/>
</svg>
